<svg width="410" height="410" viewBox="0 0 410 410" fill="none" xmlns="http://www.w3.org/2000/svg">
<rect width="50" height="50" rx="10" fill="#262626" fill-opacity="0.7"/>
<rect x="60" width="50" height="50" rx="10" fill="#55AF7F"/>
<rect x="120" width="50" height="50" rx="10" fill="#55AF7F"/>
<rect x="180" width="50" height="50" rx="10" fill="#55AF7F"/>
<rect x="240" width="50" height="50" rx="10" fill="#55AF7F"/>
<rect x="300" width="50" height="50" rx="10" fill="#262626" fill-opacity="0.7"/>
<rect x="360" width="50" height="50" rx="10" fill="#262626" fill-opacity="0.7"/>
<rect y="60" width="50" height="50" rx="10" fill="#262626" fill-opacity="0.7"/>
<rect x="60" y="60" width="50" height="50" rx="10" fill="#55AF7F"/>
<rect x="120" y="60" width="50" height="50" rx="10" fill="#262626" fill-opacity="0.7"/>
<rect x="180" y="60" width="50" height="50" rx="10" fill="#262626" fill-opacity="0.7"/>
<rect x="240" y="60" width="50" height="50" rx="10" fill="#55AF7F"/>
<rect x="300" y="60" width="50" height="50" rx="10" fill="#262626" fill-opacity="0.7"/>
<rect y="120" width="50" height="50" rx="10" fill="#262626" fill-opacity="0.7"/>
<rect x="60" y="120" width="50" height="50" rx="10" fill="#55AF7F"/>
<rect x="120" y="120" width="50" height="50" rx="10" fill="#262626" fill-opacity="0.7"/>
<rect x="180" y="120" width="50" height="50" rx="10" fill="#262626" fill-opacity="0.7"/>
<rect x="240" y="120" width="50" height="50" rx="10" fill="#55AF7F"/>
<rect x="300" y="120" width="50" height="50" rx="10" fill="#262626" fill-opacity="0.7"/>
<rect y="180" width="50" height="50" rx="10" fill="#262626" fill-opacity="0.7"/>
<rect x="60" y="180" width="50" height="50" rx="10" fill="#55AF7F"/>
<rect x="120" y="180" width="50" height="50" rx="10" fill="#262626" fill-opacity="0.7"/>
<rect x="180" y="180" width="50" height="50" rx="10" fill="#262626" fill-opacity="0.7"/>
<rect x="240" y="180" width="50" height="50" rx="10" fill="#55AF7F"/>
<rect x="300" y="180" width="50" height="50" rx="10" fill="#262626" fill-opacity="0.7"/>
<rect y="240" width="50" height="50" rx="10" fill="#262626" fill-opacity="0.7"/>
<rect x="60" y="240" width="50" height="50" rx="10" fill="#55AF7F"/>
<rect x="120" y="240" width="50" height="50" rx="10" fill="#262626" fill-opacity="0.7"/>
<rect x="180" y="240" width="50" height="50" rx="10" fill="#262626" fill-opacity="0.7"/>
<rect x="240" y="240" width="50" height="50" rx="10" fill="#55AF7F"/>
<rect x="300" y="240" width="50" height="50" rx="10" fill="#262626" fill-opacity="0.7"/>
<rect y="300" width="50" height="50" rx="10" fill="#262626" fill-opacity="0.7"/>
<rect x="60" y="300" width="50" height="50" rx="10" fill="#55AF7F"/>
<rect x="120" y="300" width="50" height="50" rx="10" fill="#262626" fill-opacity="0.7"/>
<rect x="180" y="300" width="50" height="50" rx="10" fill="#55AF7F"/>
<rect x="240" y="300" width="50" height="50" rx="10" fill="#55AF7F"/>
<rect x="300" y="300" width="50" height="50" rx="10" fill="#262626" fill-opacity="0.7"/>
<rect y="360" width="50" height="50" rx="10" fill="#262626" fill-opacity="0.7"/>
<rect x="60" y="360" width="50" height="50" rx="10" fill="#55AF7F"/>
<rect x="120" y="360" width="50" height="50" rx="10" fill="#55AF7F"/>
<rect x="180" y="360" width="50" height="50" rx="10" fill="#55AF7F"/>
<rect x="240" y="360" width="50" height="50" rx="10" fill="#55AF7F"/>
<rect x="300" y="360" width="50" height="50" rx="10" fill="#55AF7F"/>
<rect x="360" y="60" width="50" height="50" rx="10" fill="#262626" fill-opacity="0.7"/>
<rect x="360" y="120" width="50" height="50" rx="10" fill="#262626" fill-opacity="0.7"/>
<rect x="360" y="180" width="50" height="50" rx="10" fill="#262626" fill-opacity="0.7"/>
<rect x="360" y="240" width="50" height="50" rx="10" fill="#262626" fill-opacity="0.7"/>
<rect x="360" y="300" width="50" height="50" rx="10" fill="#262626" fill-opacity="0.7"/>
<rect x="360" y="360" width="50" height="50" rx="10" fill="#262626" fill-opacity="0.7"/>
</svg>
