<svg width="530" height="410" viewBox="0 0 530 410" fill="none" xmlns="http://www.w3.org/2000/svg">
<rect width="50" height="50" rx="10" transform="matrix(1 0 0 -1 0 410)" fill="#262626" fill-opacity="0.7"/>
<rect width="50" height="50" rx="10" transform="matrix(1 0 0 -1 60 410)" fill="#262626" fill-opacity="0.7"/>
<rect width="50" height="50" rx="10" transform="matrix(1 0 0 -1 120 410)" fill="#262626" fill-opacity="0.7"/>
<rect width="50" height="50" rx="10" transform="matrix(1 0 0 -1 180 410)" fill="#55AF7F"/>
<rect width="50" height="50" rx="10" transform="matrix(1 0 0 -1 240 410)" fill="#55AF7F"/>
<rect width="50" height="50" rx="10" transform="matrix(1 0 0 -1 300 410)" fill="#55AF7F"/>
<rect width="50" height="50" rx="10" transform="matrix(1 0 0 -1 360 410)" fill="#262626" fill-opacity="0.7"/>
<rect width="50" height="50" rx="10" transform="matrix(1 0 0 -1 420 410)" fill="#262626" fill-opacity="0.7"/>
<rect width="50" height="50" rx="10" transform="matrix(1 0 0 -1 480 410)" fill="#262626" fill-opacity="0.7"/>
<rect width="50" height="50" rx="10" transform="matrix(1 0 0 -1 0 350)" fill="#262626" fill-opacity="0.7"/>
<rect width="50" height="50" rx="10" transform="matrix(1 0 0 -1 60 350)" fill="#262626" fill-opacity="0.7"/>
<rect width="50" height="50" rx="10" transform="matrix(1 0 0 -1 120 350)" fill="#262626" fill-opacity="0.7"/>
<rect width="50" height="50" rx="10" transform="matrix(1 0 0 -1 180 350)" fill="#55AF7F"/>
<rect width="50" height="50" rx="10" transform="matrix(1 0 0 -1 240 350)" fill="#262626" fill-opacity="0.7"/>
<rect width="50" height="50" rx="10" transform="matrix(1 0 0 -1 300 350)" fill="#55AF7F"/>
<rect width="50" height="50" rx="10" transform="matrix(1 0 0 -1 360 350)" fill="#262626" fill-opacity="0.7"/>
<rect width="50" height="50" rx="10" transform="matrix(1 0 0 -1 420 350)" fill="#262626" fill-opacity="0.7"/>
<rect width="50" height="50" rx="10" transform="matrix(1 0 0 -1 480 350)" fill="#262626" fill-opacity="0.7"/>
<rect width="50" height="50" rx="10" transform="matrix(1 0 0 -1 0 290)" fill="#262626" fill-opacity="0.7"/>
<rect width="50" height="50" rx="10" transform="matrix(1 0 0 -1 60 290)" fill="#262626" fill-opacity="0.7"/>
<rect width="50" height="50" rx="10" transform="matrix(1 0 0 -1 120 290)" fill="#55AF7F"/>
<rect width="50" height="50" rx="10" transform="matrix(1 0 0 -1 180 290)" fill="#55AF7F"/>
<rect width="50" height="50" rx="10" transform="matrix(1 0 0 -1 240 290)" fill="#55AF7F"/>
<rect width="50" height="50" rx="10" transform="matrix(1 0 0 -1 300 290)" fill="#55AF7F"/>
<rect width="50" height="50" rx="10" transform="matrix(1 0 0 -1 360 290)" fill="#55AF7F"/>
<rect width="50" height="50" rx="10" transform="matrix(1 0 0 -1 420 290)" fill="#262626" fill-opacity="0.7"/>
<rect width="50" height="50" rx="10" transform="matrix(1 0 0 -1 480 290)" fill="#262626" fill-opacity="0.7"/>
<rect width="50" height="50" rx="10" transform="matrix(1 0 0 -1 0 230)" fill="#262626" fill-opacity="0.7"/>
<rect width="50" height="50" rx="10" transform="matrix(1 0 0 -1 60 230)" fill="#262626" fill-opacity="0.7"/>
<rect width="50" height="50" rx="10" transform="matrix(1 0 0 -1 120 230)" fill="#55AF7F"/>
<rect width="50" height="50" rx="10" transform="matrix(1 0 0 -1 180 230)" fill="#262626" fill-opacity="0.7"/>
<rect width="50" height="50" rx="10" transform="matrix(1 0 0 -1 240 230)" fill="#55AF7F"/>
<rect width="50" height="50" rx="10" transform="matrix(1 0 0 -1 300 230)" fill="#262626" fill-opacity="0.7"/>
<rect width="50" height="50" rx="10" transform="matrix(1 0 0 -1 360 230)" fill="#55AF7F"/>
<rect width="50" height="50" rx="10" transform="matrix(1 0 0 -1 420 230)" fill="#262626" fill-opacity="0.7"/>
<rect width="50" height="50" rx="10" transform="matrix(1 0 0 -1 480 230)" fill="#262626" fill-opacity="0.7"/>
<rect width="50" height="50" rx="10" transform="matrix(1 0 0 -1 0 170)" fill="#262626" fill-opacity="0.7"/>
<rect width="50" height="50" rx="10" transform="matrix(1 0 0 -1 60 170)" fill="#55AF7F"/>
<rect width="50" height="50" rx="10" transform="matrix(1 0 0 -1 120 170)" fill="#55AF7F"/>
<rect width="50" height="50" rx="10" transform="matrix(1 0 0 -1 180 170)" fill="#262626" fill-opacity="0.7"/>
<rect width="50" height="50" rx="10" transform="matrix(1 0 0 -1 240 170)" fill="#262626" fill-opacity="0.7"/>
<rect width="50" height="50" rx="10" transform="matrix(1 0 0 -1 300 170)" fill="#262626" fill-opacity="0.7"/>
<rect width="50" height="50" rx="10" transform="matrix(1 0 0 -1 360 170)" fill="#55AF7F"/>
<rect width="50" height="50" rx="10" transform="matrix(1 0 0 -1 420 170)" fill="#55AF7F"/>
<rect width="50" height="50" rx="10" transform="matrix(1 0 0 -1 480 170)" fill="#262626" fill-opacity="0.7"/>
<rect width="50" height="50" rx="10" transform="matrix(1 0 0 -1 0 110)" fill="#262626" fill-opacity="0.7"/>
<rect width="50" height="50" rx="10" transform="matrix(1 0 0 -1 60 110)" fill="#55AF7F"/>
<rect width="50" height="50" rx="10" transform="matrix(1 0 0 -1 120 110)" fill="#262626" fill-opacity="0.7"/>
<rect width="50" height="50" rx="10" transform="matrix(1 0 0 -1 180 110)" fill="#262626" fill-opacity="0.7"/>
<rect width="50" height="50" rx="10" transform="matrix(1 0 0 -1 240 110)" fill="#262626" fill-opacity="0.7"/>
<rect width="50" height="50" rx="10" transform="matrix(1 0 0 -1 300 110)" fill="#262626" fill-opacity="0.7"/>
<rect width="50" height="50" rx="10" transform="matrix(1 0 0 -1 360 110)" fill="#262626" fill-opacity="0.7"/>
<rect width="50" height="50" rx="10" transform="matrix(1 0 0 -1 420 110)" fill="#55AF7F"/>
<rect width="50" height="50" rx="10" transform="matrix(1 0 0 -1 480 110)" fill="#262626" fill-opacity="0.7"/>
<rect width="50" height="50" rx="10" transform="matrix(1 0 0 -1 0 50)" fill="#262626" fill-opacity="0.7"/>
<rect width="50" height="50" rx="10" transform="matrix(1 0 0 -1 60 50)" fill="#55AF7F"/>
<rect width="50" height="50" rx="10" transform="matrix(1 0 0 -1 120 50)" fill="#262626" fill-opacity="0.7"/>
<rect width="50" height="50" rx="10" transform="matrix(1 0 0 -1 180 50)" fill="#262626" fill-opacity="0.7"/>
<rect width="50" height="50" rx="10" transform="matrix(1 0 0 -1 240 50)" fill="#262626" fill-opacity="0.7"/>
<rect width="50" height="50" rx="10" transform="matrix(1 0 0 -1 300 50)" fill="#262626" fill-opacity="0.7"/>
<rect width="50" height="50" rx="10" transform="matrix(1 0 0 -1 360 50)" fill="#262626" fill-opacity="0.7"/>
<rect width="50" height="50" rx="10" transform="matrix(1 0 0 -1 420 50)" fill="#55AF7F"/>
<rect width="50" height="50" rx="10" transform="matrix(1 0 0 -1 480 50)" fill="#262626" fill-opacity="0.7"/>
</svg>
